<svg xmlns="http://www.w3.org/2000/svg" xmlns:v="https://svgstorm.com"
viewBox = "0 0 500 500"
width="500"
height="500">
<g fill="None" fill-opacity="0.0" stroke="#000000" stroke-opacity="0.00" stroke-width="0.3"><path d="
M 0.00 500.00 
L 500.00 500.00
L 500.00 0.00
L 0.00 0.00
L 0.00 500.00
M 247.00 94.00 
C 256.82 98.04 264.03 108.12 272.00 115.00
C 283.82 125.20 295.28 133.53 304.30 146.70 C 313.33 159.86 290.43 173.72 280.75 182.75 C 271.07 191.77 257.88 202.71 246.25 212.25 C 234.63 221.80 209.75 213.04 207.00 196.00
C 217.49 193.06 226.38 185.65 234.00 178.00
C 233.01 178.53 231.98 178.01 232.00 178.00
C 220.11 187.67 205.11 185.70 192.00 179.00
C 182.13 173.96 173.91 167.78 162.00 169.00
C 153.32 169.89 145.13 176.30 139.00 182.00
C 131.76 178.69 125.94 171.80 119.00 168.00
C 129.38 149.53 157.11 135.64 178.00 145.00
C 186.04 148.19 193.44 153.66 201.00 157.00
C 215.40 163.36 241.38 165.74 249.00 147.00
C 248.82 146.58 249.18 145.42 249.00 145.00
C 241.15 137.22 233.79 132.08 222.00 135.00
C 218.23 135.93 213.58 138.54 210.75 140.75 C 207.93 142.97 202.91 148.64 202.00 146.00
C 199.22 137.88 203.40 123.95 206.00 117.00
C 209.09 108.74 214.91 97.65 224.00 94.00
C 226.15 93.13 227.70 93.37 230.00 93.00
C 235.84 92.07 241.42 91.70 247.00 94.00
M 294.00 126.00 
C 310.85 123.51 315.30 128.62 328.75 137.25 C 342.20 145.87 325.83 159.40 316.25 150.75 C 306.67 142.11 301.90 135.03 294.00 126.00
M 369.00 171.00 
C 370.56 173.96 365.28 176.88 363.00 179.00
C 357.37 184.25 351.69 188.47 345.00 192.00
C 336.91 196.27 327.17 197.11 318.00 196.00 C 308.83 194.89 304.04 188.54 297.00 184.00
C 295.33 182.92 292.42 182.86 291.00 181.00
C 298.49 174.69 304.78 167.94 312.75 161.75 C 320.73 155.56 334.89 158.80 341.00 148.00
C 347.20 158.49 359.69 164.10 369.00 171.00
M 182.00 198.00 
C 178.39 198.14 174.61 198.20 171.00 198.00
C 163.30 197.58 151.25 194.42 145.77 188.23 C 140.29 182.04 159.41 175.44 164.00 175.00
C 166.22 174.79 168.78 174.83 171.00 175.00
C 176.85 175.44 183.77 177.97 188.69 181.31 C 193.62 184.64 201.05 186.62 203.00 192.00
C 195.35 194.14 191.08 198.29 182.00 198.00 Z"/>
</g>
<g fill="None" fill-opacity="0.0" stroke="#EF621C" stroke-opacity="0.98" stroke-width="0.3"><path d="
M 230.00 93.00 
C 231.00 93.11 233.31 94.94 235.00 94.00
C 234.45 101.44 231.97 110.90 235.00 117.00
C 232.56 116.92 229.60 117.35 228.00 119.00
C 233.42 118.81 238.68 120.07 243.00 123.00
C 241.88 120.17 246.08 112.28 244.99 107.99 C 243.90 103.70 243.83 101.21 249.00 99.00
C 247.68 97.13 245.07 95.93 247.00 94.00
C 241.42 91.70 235.84 92.07 230.00 93.00 Z"/>
</g>
<g fill="None" fill-opacity="0.0" stroke="#F67B20" stroke-opacity="0.99" stroke-width="0.3"><path d="
M 224.00 94.00 
C 217.93 98.28 220.69 113.21 224.00 118.00
C 218.53 118.95 214.33 123.76 211.00 128.00
C 212.97 125.75 216.44 122.49 219.00 121.00
C 221.83 119.36 224.71 119.11 228.00 119.00
C 229.60 117.35 232.56 116.92 235.00 117.00
C 231.97 110.90 234.45 101.44 235.00 94.00
C 233.31 94.94 231.00 93.11 230.00 93.00
C 227.70 93.37 226.15 93.13 224.00 94.00 Z"/>
</g>
<g fill="None" fill-opacity="0.0" stroke="#F3942E" stroke-opacity="0.95" stroke-width="0.3"><path d="
M 206.00 117.00 
C 205.91 120.18 208.85 121.41 206.00 124.00
C 207.94 123.32 209.96 124.50 212.00 126.00
C 210.07 127.33 208.42 129.67 208.00 132.00
C 208.66 130.84 210.11 129.19 211.00 128.00
C 214.33 123.76 218.53 118.95 224.00 118.00
C 220.69 113.21 217.93 98.28 224.00 94.00
C 214.91 97.65 209.09 108.74 206.00 117.00 Z"/>
</g>
<g fill="None" fill-opacity="0.0" stroke="#E14115" stroke-opacity="0.98" stroke-width="0.3"><path d="
M 243.00 123.00 
C 252.01 129.12 260.57 142.81 271.00 142.00
C 262.33 136.34 286.17 130.24 272.00 123.00
C 273.99 119.30 270.34 117.50 272.00 115.00
C 264.03 108.12 256.82 98.04 247.00 94.00
C 245.07 95.93 247.68 97.13 249.00 99.00
C 243.83 101.21 243.90 103.70 244.99 107.99 C 246.08 112.28 241.88 120.17 243.00 123.00 Z"/>
</g>
<g fill="None" fill-opacity="0.0" stroke="#B91A0D" stroke-opacity="0.97" stroke-width="0.3"><path d="
M 243.00 123.00 
C 238.68 120.07 233.42 118.81 228.00 119.00
C 224.71 119.11 221.83 119.36 219.00 121.00
C 217.76 122.02 218.14 124.80 216.00 125.00
C 216.23 129.72 221.71 130.57 222.00 135.00
C 233.79 132.08 241.15 137.22 249.00 145.00
C 253.41 149.36 256.26 152.87 254.00 159.00
C 252.72 162.47 249.80 164.61 247.00 167.00
C 244.35 169.65 242.17 172.93 239.00 175.00
C 237.75 175.82 235.27 177.32 234.00 178.00
C 226.38 185.65 217.49 193.06 207.00 196.00
C 209.75 213.04 234.63 221.80 246.25 212.25 C 257.88 202.71 271.07 191.77 280.75 182.75 C 290.43 173.72 313.33 159.86 304.30 146.70 C 295.28 133.53 283.82 125.20 272.00 115.00
C 270.34 117.50 273.99 119.30 272.00 123.00
C 286.17 130.24 262.33 136.34 271.00 142.00
C 260.57 142.81 252.01 129.12 243.00 123.00 Z"/>
</g>
<g fill="None" fill-opacity="0.0" stroke="#EAA94C" stroke-opacity="0.85" stroke-width="0.3"><path d="
M 202.00 146.00 
C 201.76 142.97 206.65 135.20 208.00 132.00
C 208.42 129.67 210.07 127.33 212.00 126.00
C 209.96 124.50 207.94 123.32 206.00 124.00
C 208.85 121.41 205.91 120.18 206.00 117.00
C 203.40 123.95 199.22 137.88 202.00 146.00 Z"/>
</g>
<g fill="None" fill-opacity="0.0" stroke="#B84A19" stroke-opacity="0.93" stroke-width="0.3"><path d="
M 211.00 128.00 
C 210.11 129.19 208.66 130.84 208.00 132.00
C 206.65 135.20 201.76 142.97 202.00 146.00
C 202.91 148.64 207.93 142.97 210.75 140.75 C 213.58 138.54 218.23 135.93 222.00 135.00
C 221.71 130.57 216.23 129.72 216.00 125.00
C 218.14 124.80 217.76 122.02 219.00 121.00
C 216.44 122.49 212.97 125.75 211.00 128.00 Z"/>
</g>
<g fill="None" fill-opacity="0.0" stroke="#072D63" stroke-opacity="0.92" stroke-width="0.3"><path d="
M 294.00 126.00 
C 301.90 135.03 306.67 142.11 316.25 150.75 C 325.83 159.40 342.20 145.87 328.75 137.25 C 315.30 128.62 310.85 123.51 294.00 126.00 Z"/>
</g>
<g fill="None" fill-opacity="0.0" stroke="#065896" stroke-opacity="0.95" stroke-width="0.3"><path d="
M 162.00 169.00 
C 163.11 168.43 164.49 163.56 168.00 166.00
C 165.31 164.89 167.21 162.97 166.00 161.00
C 169.76 160.96 171.57 155.83 176.00 156.00
C 175.51 150.16 176.98 149.73 181.00 150.00
C 181.94 147.68 175.70 146.89 178.00 145.00
C 157.11 135.64 129.38 149.53 119.00 168.00
C 125.94 171.80 131.76 178.69 139.00 182.00
C 145.13 176.30 153.32 169.89 162.00 169.00 Z"/>
</g>
<g fill="None" fill-opacity="0.0" stroke="#043E7D" stroke-opacity="0.95" stroke-width="0.3"><path d="
M 162.00 169.00 
C 173.91 167.78 182.13 173.96 192.00 179.00
C 191.08 176.40 199.88 165.30 202.00 167.00
C 199.28 164.01 200.85 162.41 205.00 162.00
C 203.46 160.73 202.13 158.89 201.00 157.00
C 193.44 153.66 186.04 148.19 178.00 145.00
C 175.70 146.89 181.94 147.68 181.00 150.00
C 176.98 149.73 175.51 150.16 176.00 156.00
C 171.57 155.83 169.76 160.96 166.00 161.00
C 167.21 162.97 165.31 164.89 168.00 166.00
C 164.49 163.56 163.11 168.43 162.00 169.00 Z"/>
</g>
<g fill="None" fill-opacity="0.0" stroke="#450C18" stroke-opacity="0.95" stroke-width="0.3"><path d="
M 249.00 147.00 
C 249.38 147.90 251.28 149.06 252.00 150.00
C 253.87 152.44 254.69 155.58 254.00 159.00
C 256.26 152.87 253.41 149.36 249.00 145.00
C 249.18 145.42 248.82 146.58 249.00 147.00 Z"/>
</g>
<g fill="None" fill-opacity="0.0" stroke="#052A5A" stroke-opacity="0.96" stroke-width="0.3"><path d="
M 201.00 157.00 
C 202.13 158.89 203.46 160.73 205.00 162.00
C 200.85 162.41 199.28 164.01 202.00 167.00
C 199.88 165.30 191.08 176.40 192.00 179.00
C 205.11 185.70 220.11 187.67 232.00 178.00
C 239.26 172.09 258.26 161.37 252.00 150.00
C 251.28 149.06 249.38 147.90 249.00 147.00
C 241.38 165.74 215.40 163.36 201.00 157.00 Z"/>
</g>
<g fill="None" fill-opacity="0.0" stroke="#905113" stroke-opacity="0.96" stroke-width="0.3"><path d="
M 297.00 184.00 
C 315.46 187.38 327.85 174.15 342.00 168.00
C 348.38 165.23 353.41 169.57 361.00 174.00
C 358.99 175.80 361.10 178.29 363.00 179.00
C 363.62 176.06 369.77 174.32 369.00 171.00
C 359.69 164.10 347.20 158.49 341.00 148.00
C 334.89 158.80 320.73 155.56 312.75 161.75 C 304.78 167.94 298.49 174.69 291.00 181.00
C 292.42 182.86 295.33 182.92 297.00 184.00 Z"/>
</g>
<g fill="None" fill-opacity="0.0" stroke="#2F1C30" stroke-opacity="0.96" stroke-width="0.3"><path d="
M 232.00 178.00 
C 231.98 178.01 233.01 178.53 234.00 178.00
C 235.27 177.32 237.75 175.82 239.00 175.00
C 241.75 172.90 244.33 169.28 247.00 167.00
C 249.80 164.61 252.72 162.47 254.00 159.00
C 254.69 155.58 253.87 152.44 252.00 150.00
C 258.26 161.37 239.26 172.09 232.00 178.00 Z"/>
</g>
<g fill="None" fill-opacity="0.0" stroke="#A46A1F" stroke-opacity="0.96" stroke-width="0.3"><path d="
M 342.00 168.00 
C 340.10 169.29 338.07 170.97 337.00 173.00
C 344.75 175.38 345.23 187.08 345.00 192.00
C 351.69 188.47 357.37 184.25 363.00 179.00
C 361.10 178.29 358.99 175.80 361.00 174.00
C 353.41 169.57 348.38 165.23 342.00 168.00 Z"/>
</g>
<g fill="None" fill-opacity="0.0" stroke="#B46F6B" stroke-opacity="0.96" stroke-width="0.3"><path d="
M 239.00 175.00 
C 242.17 172.93 244.35 169.65 247.00 167.00
C 244.33 169.28 241.75 172.90 239.00 175.00 Z"/>
</g>
<g fill="None" fill-opacity="0.0" stroke="#C28B35" stroke-opacity="0.95" stroke-width="0.3"><path d="
M 297.00 184.00 
C 304.04 188.54 308.83 194.89 318.00 196.00 C 327.17 197.11 336.91 196.27 345.00 192.00
C 345.23 187.08 344.75 175.38 337.00 173.00
C 338.07 170.97 340.10 169.29 342.00 168.00
C 327.85 174.15 315.46 187.38 297.00 184.00 Z"/>
</g>
<g fill="None" fill-opacity="0.0" stroke="#63441B" stroke-opacity="0.49" stroke-width="0.3"><path d="
M 363.00 179.00 
C 365.28 176.88 370.56 173.96 369.00 171.00
C 369.77 174.32 363.62 176.06 363.00 179.00 Z"/>
</g>
<g fill="None" fill-opacity="0.0" stroke="#063874" stroke-opacity="0.94" stroke-width="0.3"><path d="
M 171.00 198.00 
C 174.10 197.87 178.94 197.82 182.00 198.00
C 191.08 198.29 195.35 194.14 203.00 192.00
C 201.05 186.62 193.62 184.64 188.69 181.31 C 183.77 177.97 176.85 175.44 171.00 175.00
C 169.59 175.02 165.30 174.99 164.00 175.00
C 159.41 175.44 140.29 182.04 145.77 188.23 C 151.25 194.42 163.30 197.58 171.00 198.00 Z"/>
</g>
<g fill="None" fill-opacity="0.0" stroke="#001340" stroke-opacity="0.82" stroke-width="0.3"><path d="
M 171.00 175.00 
C 168.78 174.83 166.22 174.79 164.00 175.00
C 165.30 174.99 169.59 175.02 171.00 175.00 Z"/>
</g>
<g fill="None" fill-opacity="0.0" stroke="#000F43" stroke-opacity="0.72" stroke-width="0.3"><path d="
M 171.00 198.00 
C 174.61 198.20 178.39 198.14 182.00 198.00
C 178.94 197.82 174.10 197.87 171.00 198.00 Z"/>
</g>
<g fill="#000000" fill-opacity="0.00" stroke="None">
<path d="
M 0.00 500.00 
L 500.00 500.00
L 500.00 0.00
L 0.00 0.00
L 0.00 500.00
M 247.00 94.00 
C 256.82 98.04 264.03 108.12 272.00 115.00
C 283.82 125.20 295.28 133.53 304.30 146.70 C 313.33 159.86 290.43 173.72 280.75 182.75 C 271.07 191.77 257.88 202.71 246.25 212.25 C 234.63 221.80 209.75 213.04 207.00 196.00
C 217.49 193.06 226.38 185.65 234.00 178.00
C 233.01 178.53 231.98 178.01 232.00 178.00
C 220.11 187.67 205.11 185.70 192.00 179.00
C 182.13 173.96 173.91 167.78 162.00 169.00
C 153.32 169.89 145.13 176.30 139.00 182.00
C 131.76 178.69 125.94 171.80 119.00 168.00
C 129.38 149.53 157.11 135.64 178.00 145.00
C 186.04 148.19 193.44 153.66 201.00 157.00
C 215.40 163.36 241.38 165.74 249.00 147.00
C 248.82 146.58 249.18 145.42 249.00 145.00
C 241.15 137.22 233.79 132.08 222.00 135.00
C 218.23 135.93 213.58 138.54 210.75 140.75 C 207.93 142.97 202.91 148.64 202.00 146.00
C 199.22 137.88 203.40 123.95 206.00 117.00
C 209.09 108.74 214.91 97.65 224.00 94.00
C 226.15 93.13 227.70 93.37 230.00 93.00
C 235.84 92.07 241.42 91.70 247.00 94.00
M 294.00 126.00 
C 310.85 123.51 315.30 128.62 328.75 137.25 C 342.20 145.87 325.83 159.40 316.25 150.75 C 306.67 142.11 301.90 135.03 294.00 126.00
M 369.00 171.00 
C 370.56 173.96 365.28 176.88 363.00 179.00
C 357.37 184.25 351.69 188.47 345.00 192.00
C 336.91 196.27 327.17 197.11 318.00 196.00 C 308.83 194.89 304.04 188.54 297.00 184.00
C 295.33 182.92 292.42 182.86 291.00 181.00
C 298.49 174.69 304.78 167.94 312.75 161.75 C 320.73 155.56 334.89 158.80 341.00 148.00
C 347.20 158.49 359.69 164.10 369.00 171.00
M 182.00 198.00 
C 178.39 198.14 174.61 198.20 171.00 198.00
C 163.30 197.58 151.25 194.42 145.77 188.23 C 140.29 182.04 159.41 175.44 164.00 175.00
C 166.22 174.79 168.78 174.83 171.00 175.00
C 176.85 175.44 183.77 177.97 188.69 181.31 C 193.62 184.64 201.05 186.62 203.00 192.00
C 195.35 194.14 191.08 198.29 182.00 198.00 Z"/>
</g>
<g fill="#EF621C" fill-opacity="0.98" stroke="None">
<path d="
M 230.00 93.00 
C 231.00 93.11 233.31 94.94 235.00 94.00
C 234.45 101.44 231.97 110.90 235.00 117.00
C 232.56 116.92 229.60 117.35 228.00 119.00
C 233.42 118.81 238.68 120.07 243.00 123.00
C 241.88 120.17 246.08 112.28 244.99 107.99 C 243.90 103.70 243.83 101.21 249.00 99.00
C 247.68 97.13 245.07 95.93 247.00 94.00
C 241.42 91.70 235.84 92.07 230.00 93.00 Z"/>
</g>
<g fill="#F67B20" fill-opacity="0.99" stroke="None">
<path d="
M 224.00 94.00 
C 217.93 98.28 220.69 113.21 224.00 118.00
C 218.53 118.95 214.33 123.76 211.00 128.00
C 212.97 125.75 216.44 122.49 219.00 121.00
C 221.83 119.36 224.71 119.11 228.00 119.00
C 229.60 117.35 232.56 116.92 235.00 117.00
C 231.97 110.90 234.45 101.44 235.00 94.00
C 233.31 94.94 231.00 93.11 230.00 93.00
C 227.70 93.37 226.15 93.13 224.00 94.00 Z"/>
</g>
<g fill="#F3942E" fill-opacity="0.95" stroke="None">
<path d="
M 206.00 117.00 
C 205.91 120.18 208.85 121.41 206.00 124.00
C 207.94 123.32 209.96 124.50 212.00 126.00
C 210.07 127.33 208.42 129.67 208.00 132.00
C 208.66 130.84 210.11 129.19 211.00 128.00
C 214.33 123.76 218.53 118.95 224.00 118.00
C 220.69 113.21 217.93 98.28 224.00 94.00
C 214.91 97.65 209.09 108.74 206.00 117.00 Z"/>
</g>
<g fill="#E14115" fill-opacity="0.98" stroke="None">
<path d="
M 243.00 123.00 
C 252.01 129.12 260.57 142.81 271.00 142.00
C 262.33 136.34 286.17 130.24 272.00 123.00
C 273.99 119.30 270.34 117.50 272.00 115.00
C 264.03 108.12 256.82 98.04 247.00 94.00
C 245.07 95.93 247.68 97.13 249.00 99.00
C 243.83 101.21 243.90 103.70 244.99 107.99 C 246.08 112.28 241.88 120.17 243.00 123.00 Z"/>
</g>
<g fill="#B91A0D" fill-opacity="0.97" stroke="None">
<path d="
M 243.00 123.00 
C 238.68 120.07 233.42 118.81 228.00 119.00
C 224.71 119.11 221.83 119.36 219.00 121.00
C 217.76 122.02 218.14 124.80 216.00 125.00
C 216.23 129.72 221.71 130.57 222.00 135.00
C 233.79 132.08 241.15 137.22 249.00 145.00
C 253.41 149.36 256.26 152.87 254.00 159.00
C 252.72 162.47 249.80 164.61 247.00 167.00
C 244.35 169.65 242.17 172.93 239.00 175.00
C 237.75 175.82 235.27 177.32 234.00 178.00
C 226.38 185.65 217.49 193.06 207.00 196.00
C 209.75 213.04 234.63 221.80 246.25 212.25 C 257.88 202.71 271.07 191.77 280.75 182.75 C 290.43 173.72 313.33 159.86 304.30 146.70 C 295.28 133.53 283.82 125.20 272.00 115.00
C 270.34 117.50 273.99 119.30 272.00 123.00
C 286.17 130.24 262.33 136.34 271.00 142.00
C 260.57 142.81 252.01 129.12 243.00 123.00 Z"/>
</g>
<g fill="#EAA94C" fill-opacity="0.85" stroke="None">
<path d="
M 202.00 146.00 
C 201.76 142.97 206.65 135.20 208.00 132.00
C 208.42 129.67 210.07 127.33 212.00 126.00
C 209.96 124.50 207.94 123.32 206.00 124.00
C 208.85 121.41 205.91 120.18 206.00 117.00
C 203.40 123.95 199.22 137.88 202.00 146.00 Z"/>
</g>
<g fill="#B84A19" fill-opacity="0.93" stroke="None">
<path d="
M 211.00 128.00 
C 210.11 129.19 208.66 130.84 208.00 132.00
C 206.65 135.20 201.76 142.97 202.00 146.00
C 202.91 148.64 207.93 142.97 210.75 140.75 C 213.58 138.54 218.23 135.93 222.00 135.00
C 221.71 130.57 216.23 129.72 216.00 125.00
C 218.14 124.80 217.76 122.02 219.00 121.00
C 216.44 122.49 212.97 125.75 211.00 128.00 Z"/>
</g>
<g fill="#072D63" fill-opacity="0.92" stroke="None">
<path d="
M 294.00 126.00 
C 301.90 135.03 306.67 142.11 316.25 150.75 C 325.83 159.40 342.20 145.87 328.75 137.25 C 315.30 128.62 310.85 123.51 294.00 126.00 Z"/>
</g>
<g fill="#065896" fill-opacity="0.95" stroke="None">
<path d="
M 162.00 169.00 
C 163.11 168.43 164.49 163.56 168.00 166.00
C 165.31 164.89 167.21 162.97 166.00 161.00
C 169.76 160.96 171.57 155.83 176.00 156.00
C 175.51 150.16 176.98 149.73 181.00 150.00
C 181.94 147.68 175.70 146.89 178.00 145.00
C 157.11 135.64 129.38 149.53 119.00 168.00
C 125.94 171.80 131.76 178.69 139.00 182.00
C 145.13 176.30 153.32 169.89 162.00 169.00 Z"/>
</g>
<g fill="#043E7D" fill-opacity="0.95" stroke="None">
<path d="
M 162.00 169.00 
C 173.91 167.78 182.13 173.96 192.00 179.00
C 191.08 176.40 199.88 165.30 202.00 167.00
C 199.28 164.01 200.85 162.41 205.00 162.00
C 203.46 160.73 202.13 158.89 201.00 157.00
C 193.44 153.66 186.04 148.19 178.00 145.00
C 175.70 146.89 181.94 147.68 181.00 150.00
C 176.98 149.73 175.51 150.16 176.00 156.00
C 171.57 155.83 169.76 160.96 166.00 161.00
C 167.21 162.97 165.31 164.89 168.00 166.00
C 164.49 163.56 163.11 168.43 162.00 169.00 Z"/>
</g>
<g fill="#450C18" fill-opacity="0.95" stroke="None">
<path d="
M 249.00 147.00 
C 249.38 147.90 251.28 149.06 252.00 150.00
C 253.87 152.44 254.69 155.58 254.00 159.00
C 256.26 152.87 253.41 149.36 249.00 145.00
C 249.18 145.42 248.82 146.58 249.00 147.00 Z"/>
</g>
<g fill="#052A5A" fill-opacity="0.96" stroke="None">
<path d="
M 201.00 157.00 
C 202.13 158.89 203.46 160.73 205.00 162.00
C 200.85 162.41 199.28 164.01 202.00 167.00
C 199.88 165.30 191.08 176.40 192.00 179.00
C 205.11 185.70 220.11 187.67 232.00 178.00
C 239.26 172.09 258.26 161.37 252.00 150.00
C 251.28 149.06 249.38 147.90 249.00 147.00
C 241.38 165.74 215.40 163.36 201.00 157.00 Z"/>
</g>
<g fill="#905113" fill-opacity="0.96" stroke="None">
<path d="
M 297.00 184.00 
C 315.46 187.38 327.85 174.15 342.00 168.00
C 348.38 165.23 353.41 169.57 361.00 174.00
C 358.99 175.80 361.10 178.29 363.00 179.00
C 363.62 176.06 369.77 174.32 369.00 171.00
C 359.69 164.10 347.20 158.49 341.00 148.00
C 334.89 158.80 320.73 155.56 312.75 161.75 C 304.78 167.94 298.49 174.69 291.00 181.00
C 292.42 182.86 295.33 182.92 297.00 184.00 Z"/>
</g>
<g fill="#2F1C30" fill-opacity="0.96" stroke="None">
<path d="
M 232.00 178.00 
C 231.98 178.01 233.01 178.53 234.00 178.00
C 235.27 177.32 237.75 175.82 239.00 175.00
C 241.75 172.90 244.33 169.28 247.00 167.00
C 249.80 164.61 252.72 162.47 254.00 159.00
C 254.69 155.58 253.87 152.44 252.00 150.00
C 258.26 161.37 239.26 172.09 232.00 178.00 Z"/>
</g>
<g fill="#A46A1F" fill-opacity="0.96" stroke="None">
<path d="
M 342.00 168.00 
C 340.10 169.29 338.07 170.97 337.00 173.00
C 344.75 175.38 345.23 187.08 345.00 192.00
C 351.69 188.47 357.37 184.25 363.00 179.00
C 361.10 178.29 358.99 175.80 361.00 174.00
C 353.41 169.57 348.38 165.23 342.00 168.00 Z"/>
</g>
<g fill="#B46F6B" fill-opacity="0.96" stroke="None">
<path d="
M 239.00 175.00 
C 242.17 172.93 244.35 169.65 247.00 167.00
C 244.33 169.28 241.75 172.90 239.00 175.00 Z"/>
</g>
<g fill="#C28B35" fill-opacity="0.95" stroke="None">
<path d="
M 297.00 184.00 
C 304.04 188.54 308.83 194.89 318.00 196.00 C 327.17 197.11 336.91 196.27 345.00 192.00
C 345.23 187.08 344.75 175.38 337.00 173.00
C 338.07 170.97 340.10 169.29 342.00 168.00
C 327.85 174.15 315.46 187.38 297.00 184.00 Z"/>
</g>
<g fill="#63441B" fill-opacity="0.49" stroke="None">
<path d="
M 363.00 179.00 
C 365.28 176.88 370.56 173.96 369.00 171.00
C 369.77 174.32 363.62 176.06 363.00 179.00 Z"/>
</g>
<g fill="#063874" fill-opacity="0.94" stroke="None">
<path d="
M 171.00 198.00 
C 174.10 197.87 178.94 197.82 182.00 198.00
C 191.08 198.29 195.35 194.14 203.00 192.00
C 201.05 186.62 193.62 184.64 188.69 181.31 C 183.77 177.97 176.85 175.44 171.00 175.00
C 169.59 175.02 165.30 174.99 164.00 175.00
C 159.41 175.44 140.29 182.04 145.77 188.23 C 151.25 194.42 163.30 197.58 171.00 198.00 Z"/>
</g>
<g fill="#001340" fill-opacity="0.82" stroke="None">
<path d="
M 171.00 175.00 
C 168.78 174.83 166.22 174.79 164.00 175.00
C 165.30 174.99 169.59 175.02 171.00 175.00 Z"/>
</g>
<g fill="#000F43" fill-opacity="0.72" stroke="None">
<path d="
M 171.00 198.00 
C 174.61 198.20 178.39 198.14 182.00 198.00
C 178.94 197.82 174.10 197.87 171.00 198.00 Z"/>
</g>
</svg>